<?xml version="1.0" standalone="no"?>
<!DOCTYPE svg PUBLIC "-//W3C//DTD SVG 20010904//EN"
 "http://www.w3.org/TR/2001/REC-SVG-20010904/DTD/svg10.dtd">
<svg version="1.0" xmlns="http://www.w3.org/2000/svg"
 width="128.000000pt" height="128.000000pt" viewBox="0 0 128.000000 128.000000"
 preserveAspectRatio="xMidYMid meet">
<metadata>
Created by potrace 1.11, written by Peter Selinger 2001-2013
</metadata>
<g transform="translate(0.000000,128.000000) scale(0.100000,-0.100000)"
fill="#000000" stroke="none">
<path d="M0 640 l0 -640 260 0 260 0 0 38 c1 20 7 48 15 62 8 14 14 40 15 58
0 17 5 32 10 32 6 0 10 -4 10 -10 0 -15 40 -32 77 -32 22 0 43 8 58 22 l23 22
7 -40 c3 -22 13 -48 20 -59 8 -10 15 -35 15 -55 l0 -38 255 0 255 0 0 640 0
640 -640 0 -640 0 0 -640z"/>
</g>
</svg>
